<svg width="64" height="64" viewBox="0 0 64 64" fill="none" xmlns="http://www.w3.org/2000/svg">
<path d="M18 32C17.4696 32 16.9609 32.2107 16.5858 32.5858C16.2107 32.9609 16 33.4696 16 34V44C16 44.5304 16.2107 45.0391 16.5858 45.4142C16.9609 45.7893 17.4696 46 18 46C18.5304 46 19.0391 45.7893 19.4142 45.4142C19.7893 45.0391 20 44.5304 20 44V42H21C22.3261 42 23.5979 41.4732 24.5355 40.5355C25.4732 39.5979 26 38.3261 26 37C26 35.6739 25.4732 34.4021 24.5355 33.4645C23.5979 32.5268 22.3261 32 21 32H18ZM21 38H20V36H21C21.2652 36 21.5196 36.1054 21.7071 36.2929C21.8946 36.4804 22 36.7348 22 37C22 37.2652 21.8946 37.5196 21.7071 37.7071C21.5196 37.8946 21.2652 38 21 38ZM28 34C28 33.4696 28.2107 32.9609 28.5858 32.5858C28.9609 32.2107 29.4696 32 30 32H31C32.8565 32 34.637 32.7375 35.9497 34.0503C37.2625 35.363 38 37.1435 38 39C38 40.8565 37.2625 42.637 35.9497 43.9497C34.637 45.2625 32.8565 46 31 46H30C29.4696 46 28.9609 45.7893 28.5858 45.4142C28.2107 45.0391 28 44.5304 28 44V34ZM32 41.83C32.586 41.6239 33.0935 41.2409 33.4526 40.734C33.8116 40.2271 34.0045 39.6212 34.0045 39C34.0045 38.3788 33.8116 37.7729 33.4526 37.266C33.0935 36.7591 32.586 36.3761 32 36.17V41.83ZM40 44V34C40 33.4696 40.2107 32.9609 40.5858 32.5858C40.9609 32.2107 41.4696 32 42 32H48C48.5304 32 49.0391 32.2107 49.4142 32.5858C49.7893 32.9609 50 33.4696 50 34C50 34.5304 49.7893 35.0391 49.4142 35.4142C49.0391 35.7893 48.5304 36 48 36H44V38H48C48.5304 38 49.0391 38.2107 49.4142 38.5858C49.7893 38.9609 50 39.4696 50 40C50 40.5304 49.7893 41.0391 49.4142 41.4142C49.0391 41.7893 48.5304 42 48 42H44V44C44 44.5304 43.7893 45.0391 43.4142 45.4142C43.0391 45.7893 42.5304 46 42 46C41.4696 46 40.9609 45.7893 40.5858 45.4142C40.2107 45.0391 40 44.5304 40 44ZM34 18V4H16C14.4087 4 12.8826 4.63214 11.7574 5.75736C10.6321 6.88258 10 8.4087 10 10V26C8.93913 26 7.92172 26.4214 7.17157 27.1716C6.42143 27.9217 6 28.9391 6 30V48C6 49.0609 6.42143 50.0783 7.17157 50.8284C7.92172 51.5786 8.93913 52 10 52V54C10 55.5913 10.6321 57.1174 11.7574 58.2426C12.8826 59.3679 14.4087 60 16 60H48C49.5913 60 51.1174 59.3679 52.2426 58.2426C53.3679 57.1174 54 55.5913 54 54V52C55.0609 52 56.0783 51.5786 56.8284 50.8284C57.5786 50.0783 58 49.0609 58 48V30C58 28.9391 57.5786 27.9217 56.8284 27.1716C56.0783 26.4214 55.0609 26 54 26V24H40C38.4087 24 36.8826 23.3679 35.7574 22.2426C34.6321 21.1174 34 19.5913 34 18ZM54 30V48H10V30H54ZM38 18V4.234C38.9772 4.51469 39.867 5.0391 40.586 5.758L52.242 17.414C52.9609 18.133 53.4853 19.0228 53.766 20H40C39.4696 20 38.9609 19.7893 38.5858 19.4142C38.2107 19.0391 38 18.5304 38 18Z" fill="white"/>
</svg>
