<svg width="35" height="35" viewBox="0 0 35 35" fill="none" xmlns="http://www.w3.org/2000/svg">
<path d="M33.1771 0C34.1839 0 35 0.816148 35 1.82292V33.1771C35 34.1839 34.1839 35 33.1771 35H1.82292C0.816148 35 4.69785e-08 34.1839 0 33.1771V25.5066H0.161107L2.27526 21.8447H20.9395C21.1844 21.8447 21.4191 21.7461 21.5905 21.5713L23.7009 19.4187C23.868 19.2483 23.9616 19.0191 23.9616 18.7805V18.6464C23.9616 18.4124 23.8716 18.1873 23.7102 18.0179L21.9222 16.1406C21.5865 15.7882 21.033 15.7615 20.6652 16.0803L19.6241 16.9827C19.2484 17.3083 18.6809 17.2726 18.3488 16.9026L17.7444 16.2291C17.3945 15.8393 16.7888 15.8239 16.4196 16.1955L15.7348 16.8848C15.3655 17.2563 14.7597 17.2408 14.4098 16.8509L13.8227 16.1967C13.4838 15.8192 12.9019 15.7909 12.5281 16.1339L11.6198 16.9674C11.2551 17.302 10.6898 17.2843 10.3467 16.9275L9.62995 16.1821C9.21754 15.7532 8.64823 15.5108 8.05323 15.5108H2.27526L0.161107 11.849H0V1.82292C0 0.816148 0.816148 4.69771e-08 1.82292 0H33.1771Z" fill="#7C7ACE"/>
<path d="M32.0272 0.469082C33.2272 -0.444689 34.9545 0.41111 34.9546 1.9194V33.0808C34.9546 34.5891 33.2272 35.4449 32.0272 34.5311L15.3675 21.8449H21.1219C21.3668 21.8449 21.6015 21.7463 21.773 21.5715L23.8834 19.4189C24.0504 19.2485 24.144 19.0193 24.144 18.7807V18.6466C24.144 18.4126 24.054 18.1875 23.8926 18.018L22.1046 16.1408C21.7689 15.7883 21.2155 15.7617 20.8476 16.0805L19.8066 16.9829C19.4308 17.3084 18.8633 17.2727 18.5312 16.9027L17.9268 16.2293C17.577 15.8394 16.9713 15.8241 16.602 16.1957L15.9172 16.8849C15.548 17.2565 14.9421 17.2409 14.5922 16.8511L14.0051 16.1969C13.6662 15.8193 13.0843 15.7911 12.7105 16.1341L11.8023 16.9675C11.5452 17.2033 11.1888 17.2638 10.8805 17.1543C10.9609 16.7338 11.1894 16.3368 11.5662 16.0499L32.0272 0.469082Z" fill="url(#paint0_radial_2644_192)"/>
<defs>
<radialGradient id="paint0_radial_2644_192" cx="0" cy="0" r="1" gradientUnits="userSpaceOnUse" gradientTransform="translate(12.5781 18.3204) rotate(-2.09525) scale(22.437 15.5153)">
<stop offset="0.499166" stop-color="#7C7ACE"/>
<stop offset="1" stop-color="#4A4DA9"/>
</radialGradient>
</defs>
</svg>
