<svg width="27" height="27" viewBox="0 0 27 27" fill="none" xmlns="http://www.w3.org/2000/svg">
<path d="M2.91699 20.417C4.52754 20.4172 5.83283 21.7225 5.83301 23.333C5.83301 24.9437 4.52764 26.2498 2.91699 26.25C1.30616 26.25 0 24.9438 0 23.333C0.000176515 21.7224 1.30627 20.417 2.91699 20.417ZM13.125 20.417C14.7357 20.417 16.0418 21.7224 16.042 23.333C16.042 24.9438 14.7358 26.25 13.125 26.25C11.5142 26.25 10.208 24.9438 10.208 23.333C10.2082 21.7224 11.5143 20.417 13.125 20.417ZM23.333 20.417C24.9437 20.417 26.2498 21.7224 26.25 23.333C26.25 24.9438 24.9438 26.25 23.333 26.25C21.7224 26.2498 20.417 24.9437 20.417 23.333C20.4172 21.7225 21.7225 20.4172 23.333 20.417ZM2.91699 10.208C4.52764 10.2082 5.83301 11.5143 5.83301 13.125C5.83301 14.7357 4.52764 16.0418 2.91699 16.042C1.30616 16.042 0 14.7358 0 13.125C2.57711e-07 11.5142 1.30616 10.208 2.91699 10.208ZM13.125 10.208C14.7358 10.208 16.042 11.5142 16.042 13.125C16.042 14.7358 14.7358 16.042 13.125 16.042C11.5142 16.042 10.208 14.7358 10.208 13.125C10.208 11.5142 11.5142 10.208 13.125 10.208ZM23.333 10.208C24.9438 10.208 26.25 11.5142 26.25 13.125C26.25 14.7358 24.9438 16.042 23.333 16.042C21.7224 16.0418 20.417 14.7357 20.417 13.125C20.417 11.5143 21.7224 10.2082 23.333 10.208ZM2.91699 0C4.52764 0.000176 5.83301 1.30627 5.83301 2.91699C5.83283 4.52754 4.52754 5.83283 2.91699 5.83301C1.30627 5.83301 0.000175999 4.52764 0 2.91699C0 1.30616 1.30616 0 2.91699 0ZM13.125 0C14.7358 0 16.042 1.30616 16.042 2.91699C16.0418 4.52764 14.7357 5.83301 13.125 5.83301C11.5143 5.83301 10.2082 4.52764 10.208 2.91699C10.208 1.30616 11.5142 2.57707e-07 13.125 0ZM23.333 0C24.9438 0 26.25 1.30616 26.25 2.91699C26.2498 4.52764 24.9437 5.83301 23.333 5.83301C21.7225 5.83283 20.4172 4.52754 20.417 2.91699C20.417 1.30627 21.7224 0.000176515 23.333 0Z" fill="#D9D9D9"/>
</svg>
