<svg width="40" height="45" viewBox="0 0 40 45" fill="none" xmlns="http://www.w3.org/2000/svg">
<path d="M7.7578 8.35789C7.4526 8.60208 7.20623 8.91178 7.03692 9.26408C6.86761 9.61637 6.7797 10.0022 6.7797 10.3931C6.7797 10.784 6.86761 11.1698 7.03692 11.5221C7.20623 11.8744 7.4526 12.1841 7.7578 12.4283L17.4886 20.2129C19.1958 21.577 21.7241 20.365 21.7241 18.1777V11.6594C24.2054 12.081 26.5119 13.2109 28.3659 14.913C30.2199 16.6152 31.5423 18.817 32.1738 21.2533H30.4123C29.5482 21.2533 28.7195 21.5966 28.1085 22.2076C27.4975 22.8186 27.1542 23.6473 27.1542 24.5114C27.1542 25.3755 27.4975 26.2042 28.1085 26.8152C28.7195 27.4262 29.5482 27.7695 30.4123 27.7695H32.1738C31.59 30.0235 30.4139 32.0803 28.7674 33.7268C27.121 35.3732 25.0641 36.5493 22.8101 37.1332V35.3716C22.8101 34.5075 22.4669 33.6788 21.8559 33.0678C21.2448 32.4568 20.4161 32.1136 19.552 32.1136C18.6879 32.1136 17.8592 32.4568 17.2482 33.0678C16.6372 33.6788 16.294 34.5075 16.294 35.3716V37.1332C14.0399 36.5493 11.9831 35.3732 10.3366 33.7268C8.6902 32.0803 7.5141 30.0235 6.93025 27.7695H8.69179C9.55588 27.7695 10.3846 27.4262 10.9956 26.8152C11.6066 26.2042 11.9499 25.3755 11.9499 24.5114C11.9499 23.6473 11.6066 22.8186 10.9956 22.2076C10.3846 21.5966 9.55588 21.2533 8.69179 21.2533H6.93025C6.94763 21.1809 6.96718 21.1085 6.9889 21.0361C7.21932 20.2031 7.10941 19.3127 6.68333 18.5608C6.25726 17.8088 5.54992 17.257 4.71693 17.0265C3.88394 16.7961 2.99354 16.906 2.24159 17.3321C1.48964 17.7582 0.937751 18.4655 0.707326 19.2985C-0.358454 23.152 -0.217003 27.2397 1.11261 31.0103C2.44222 34.7809 4.89604 38.0532 8.14322 40.3859C11.3904 42.7186 15.2748 43.9995 19.2726 44.0559C23.2703 44.1123 27.1893 42.9416 30.501 40.7015C33.8128 38.4614 36.358 35.2597 37.7935 31.5281C39.229 27.7965 39.4858 23.7144 38.5292 19.8324C37.5726 15.9503 35.4486 12.4549 32.4437 9.81747C29.4388 7.18004 25.6975 5.52741 21.7241 5.08244V2.61065C21.7241 0.42557 19.1958 -0.788605 17.4886 0.575441L7.7578 8.35789Z" fill="white"/>
</svg>
