<svg width="48" height="48" viewBox="0 0 48 48" fill="none" xmlns="http://www.w3.org/2000/svg">
<path d="M24 37.3333C24.7556 37.3333 25.3893 37.0773 25.9013 36.5653C26.4133 36.0533 26.6684 35.4204 26.6667 34.6667C26.6649 33.9129 26.4089 33.28 25.8987 32.768C25.3884 32.256 24.7556 32 24 32C23.2444 32 22.6116 32.256 22.1013 32.768C21.5911 33.28 21.3351 33.9129 21.3333 34.6667C21.3316 35.4204 21.5876 36.0542 22.1013 36.568C22.6151 37.0818 23.248 37.3369 24 37.3333ZM21.3333 26.6667H26.6667V10.6667H21.3333V26.6667ZM14 48L0 34V14L14 0H34L48 14V34L34 48H14Z" fill="white"/>
</svg>
