<svg width="48" height="48" viewBox="0 0 48 48" fill="none" xmlns="http://www.w3.org/2000/svg">
<path d="M24 28.544L47.712 38.016L47.904 38.08H48L24 47.68L0 38.08H0.16L0.288 38.016L24 28.544ZM24 31.936L8.608 38.08L24 44.224L39.392 38.08L24 31.936ZM23.2 0V26.88L23.232 27.072V27.136L16 30.016V17.312C16.0001 16.7428 15.8583 16.1826 15.5875 15.682C15.3166 15.1814 14.9252 14.7562 14.4488 14.4449C13.9723 14.1336 13.4257 13.946 12.8584 13.899C12.2912 13.8521 11.7212 13.9473 11.2 14.176C8.48 15.36 6.624 17.984 6.432 20.928L6.4 21.504V33.856L0 36.416V9.28L23.2 0ZM24.8 0L48 9.28V36.416L24.768 27.136L24.8 27.008V0ZM31.2 12.48V22.08L40.8 26.08V16.48L31.2 12.48ZM12.8 21.28C13.696 21.28 14.4 21.984 14.4 22.88C14.4 23.776 13.696 24.48 12.8 24.48C11.904 24.48 11.2 23.776 11.2 22.88C11.2 21.984 11.904 21.28 12.8 21.28Z" fill="white"/>
</svg>
