<svg width="42" height="42" viewBox="0 0 42 42" fill="none" xmlns="http://www.w3.org/2000/svg">
<path d="M42 8.99986C42 7.40856 41.3679 5.88244 40.2426 4.75722C39.1174 3.632 37.5913 2.99986 36 2.99986H34.5V1.54205C34.5 0.734863 33.8794 0.0420506 33.0722 0.00173811C32.8694 -0.00803365 32.6667 0.0234732 32.4764 0.0943498C32.2861 0.165226 32.1122 0.273997 31.9652 0.414071C31.8182 0.554144 31.7012 0.722604 31.6212 0.909243C31.5413 1.09588 31.5 1.29681 31.5 1.49986V2.99986H10.5V1.54205C10.5 0.734863 9.87938 0.0420506 9.07219 0.00173811C8.86937 -0.00803365 8.66669 0.0234732 8.47641 0.0943498C8.28613 0.165226 8.11222 0.273997 7.96523 0.414071C7.81823 0.554144 7.7012 0.722604 7.62123 0.909243C7.54126 1.09588 7.50002 1.29681 7.5 1.49986V2.99986H6C4.4087 2.99986 2.88258 3.632 1.75736 4.75722C0.632141 5.88244 0 7.40856 0 8.99986V10.1249C0 10.2243 0.0395089 10.3197 0.109835 10.39C0.180161 10.4604 0.275544 10.4999 0.375 10.4999H41.625C41.7245 10.4999 41.8198 10.4604 41.8902 10.39C41.9605 10.3197 42 10.2243 42 10.1249V8.99986ZM0 35.9999C0 37.5912 0.632141 39.1173 1.75736 40.2425C2.88258 41.3677 4.4087 41.9999 6 41.9999H36C37.5913 41.9999 39.1174 41.3677 40.2426 40.2425C41.3679 39.1173 42 37.5912 42 35.9999V13.7811C42 13.7065 41.9704 13.635 41.9176 13.5822C41.8649 13.5295 41.7933 13.4999 41.7188 13.4999H0.28125C0.206658 13.4999 0.135121 13.5295 0.0823764 13.5822C0.0296318 13.635 0 13.7065 0 13.7811V35.9999ZM32.25 16.4999C32.695 16.4999 33.13 16.6318 33.5 16.8791C33.87 17.1263 34.1584 17.4777 34.3287 17.8888C34.499 18.3 34.5436 18.7524 34.4568 19.1888C34.3699 19.6253 34.1557 20.0262 33.841 20.3409C33.5263 20.6555 33.1254 20.8698 32.689 20.9566C32.2525 21.0434 31.8001 20.9989 31.389 20.8286C30.9778 20.6583 30.6264 20.3699 30.3792 19.9999C30.132 19.6299 30 19.1949 30 18.7499C30 18.1531 30.2371 17.5808 30.659 17.1589C31.081 16.7369 31.6533 16.4999 32.25 16.4999ZM32.25 23.9999C32.695 23.9999 33.13 24.1318 33.5 24.3791C33.87 24.6263 34.1584 24.9777 34.3287 25.3888C34.499 25.8 34.5436 26.2524 34.4568 26.6888C34.3699 27.1253 34.1557 27.5262 33.841 27.8409C33.5263 28.1555 33.1254 28.3698 32.689 28.4566C32.2525 28.5434 31.8001 28.4989 31.389 28.3286C30.9778 28.1583 30.6264 27.8699 30.3792 27.4999C30.132 27.1299 30 26.6949 30 26.2499C30 25.6531 30.2371 25.0808 30.659 24.6589C31.081 24.2369 31.6533 23.9999 32.25 23.9999ZM24.75 16.4999C25.195 16.4999 25.63 16.6318 26 16.8791C26.37 17.1263 26.6584 17.4777 26.8287 17.8888C26.999 18.3 27.0436 18.7524 26.9568 19.1888C26.87 19.6253 26.6557 20.0262 26.341 20.3409C26.0263 20.6555 25.6254 20.8698 25.189 20.9566C24.7525 21.0434 24.3001 20.9989 23.889 20.8286C23.4778 20.6583 23.1264 20.3699 22.8792 19.9999C22.632 19.6299 22.5 19.1949 22.5 18.7499C22.5 18.1531 22.7371 17.5808 23.159 17.1589C23.581 16.7369 24.1533 16.4999 24.75 16.4999ZM24.75 23.9999C25.195 23.9999 25.63 24.1318 26 24.3791C26.37 24.6263 26.6584 24.9777 26.8287 25.3888C26.999 25.8 27.0436 26.2524 26.9568 26.6888C26.87 27.1253 26.6557 27.5262 26.341 27.8409C26.0263 28.1555 25.6254 28.3698 25.189 28.4566C24.7525 28.5434 24.3001 28.4989 23.889 28.3286C23.4778 28.1583 23.1264 27.8699 22.8792 27.4999C22.632 27.1299 22.5 26.6949 22.5 26.2499C22.5 25.6531 22.7371 25.0808 23.159 24.6589C23.581 24.2369 24.1533 23.9999 24.75 23.9999ZM24.75 31.4999C25.195 31.4999 25.63 31.6318 26 31.8791C26.37 32.1263 26.6584 32.4777 26.8287 32.8888C26.999 33.3 27.0436 33.7524 26.9568 34.1888C26.87 34.6253 26.6557 35.0262 26.341 35.3409C26.0263 35.6555 25.6254 35.8698 25.189 35.9566C24.7525 36.0434 24.3001 35.9989 23.889 35.8286C23.4778 35.6583 23.1264 35.3699 22.8792 34.9999C22.632 34.6299 22.5 34.1949 22.5 33.7499C22.5 33.1531 22.7371 32.5808 23.159 32.1589C23.581 31.7369 24.1533 31.4999 24.75 31.4999ZM17.25 23.9999C17.695 23.9999 18.13 24.1318 18.5 24.3791C18.87 24.6263 19.1584 24.9777 19.3287 25.3888C19.499 25.8 19.5436 26.2524 19.4568 26.6888C19.37 27.1253 19.1557 27.5262 18.841 27.8409C18.5263 28.1555 18.1254 28.3698 17.689 28.4566C17.2525 28.5434 16.8001 28.4989 16.389 28.3286C15.9778 28.1583 15.6264 27.8699 15.3792 27.4999C15.132 27.1299 15 26.6949 15 26.2499C15 25.6531 15.2371 25.0808 15.659 24.6589C16.081 24.2369 16.6533 23.9999 17.25 23.9999ZM17.25 31.4999C17.695 31.4999 18.13 31.6318 18.5 31.8791C18.87 32.1263 19.1584 32.4777 19.3287 32.8888C19.499 33.3 19.5436 33.7524 19.4568 34.1888C19.37 34.6253 19.1557 35.0262 18.841 35.3409C18.5263 35.6555 18.1254 35.8698 17.689 35.9566C17.2525 36.0434 16.8001 35.9989 16.389 35.8286C15.9778 35.6583 15.6264 35.3699 15.3792 34.9999C15.132 34.6299 15 34.1949 15 33.7499C15 33.1531 15.2371 32.5808 15.659 32.1589C16.081 31.7369 16.6533 31.4999 17.25 31.4999ZM9.75 23.9999C10.195 23.9999 10.63 24.1318 11 24.3791C11.37 24.6263 11.6584 24.9777 11.8287 25.3888C11.999 25.8 12.0436 26.2524 11.9568 26.6888C11.87 27.1253 11.6557 27.5262 11.341 27.8409C11.0263 28.1555 10.6254 28.3698 10.189 28.4566C9.7525 28.5434 9.3001 28.4989 8.88896 28.3286C8.47783 28.1583 8.12643 27.8699 7.87919 27.4999C7.63196 27.1299 7.5 26.6949 7.5 26.2499C7.5 25.6531 7.73705 25.0808 8.15901 24.6589C8.58097 24.2369 9.15326 23.9999 9.75 23.9999ZM9.75 31.4999C10.195 31.4999 10.63 31.6318 11 31.8791C11.37 32.1263 11.6584 32.4777 11.8287 32.8888C11.999 33.3 12.0436 33.7524 11.9568 34.1888C11.87 34.6253 11.6557 35.0262 11.341 35.3409C11.0263 35.6555 10.6254 35.8698 10.189 35.9566C9.7525 36.0434 9.3001 35.9989 8.88896 35.8286C8.47783 35.6583 8.12643 35.3699 7.87919 34.9999C7.63196 34.6299 7.5 34.1949 7.5 33.7499C7.5 33.1531 7.73705 32.5808 8.15901 32.1589C8.58097 31.7369 9.15326 31.4999 9.75 31.4999Z" fill="white"/>
</svg>
