<svg width="32" height="27" viewBox="0 0 32 27" fill="none" xmlns="http://www.w3.org/2000/svg">
<path d="M16 7.11676V1.99876C15.9994 1.60351 15.8817 1.2173 15.662 0.888791C15.4422 0.560283 15.1301 0.304179 14.765 0.152754C14.3999 0.0013286 13.9982 -0.0386421 13.6104 0.0378799C13.2226 0.114402 12.8662 0.303992 12.586 0.582757L0 12.9988L12.586 25.4128C12.7713 25.5991 12.9916 25.747 13.2343 25.8479C13.477 25.9489 13.7372 26.0008 14 26.0008C14.2628 26.0008 14.523 25.9489 14.7657 25.8479C15.0084 25.747 15.2287 25.5991 15.414 25.4128C15.7891 25.0378 15.9999 24.5291 16 23.9988V19.0208C21.5 19.1568 27.51 20.1528 32 26.9988V24.9988C32 15.7328 25 8.11276 16 7.11676Z" fill="white"/>
</svg>
