<svg width="26" height="27" viewBox="0 0 26 27" fill="none" xmlns="http://www.w3.org/2000/svg">
<path fill-rule="evenodd" clip-rule="evenodd" d="M6.90088 2.5598C8.10746 1.33734 9.64462 0.504923 11.318 0.167796C12.9914 -0.169331 14.7258 0.00397257 16.302 0.665795C17.8782 1.32762 19.2253 2.44824 20.1731 3.88596C21.1209 5.32368 21.6268 7.01395 21.6268 8.74303C21.6268 9.82889 21.8004 10.8668 22.0806 11.9686C22.1516 12.1926 22.2286 12.4032 22.3115 12.6005C22.4239 12.8665 22.6509 13.0965 23.085 13.3804C23.2547 13.4884 23.4283 13.5904 23.6256 13.7044L23.8091 13.8124C24.0735 13.9664 24.3675 14.1463 24.6497 14.3583C25.6718 15.1242 26.0467 16.3041 25.9954 17.3679C25.9461 18.4018 25.4883 19.4817 24.6339 20.1336C24.5788 20.1766 24.5215 20.2167 24.4622 20.2536C24.3191 20.3466 24.1701 20.4301 24.0163 20.5036C23.428 20.7758 22.8147 20.9888 22.1852 21.1395C20.4685 21.5794 17.6252 21.9974 13 21.9974C8.37485 21.9974 5.53148 21.5794 3.81481 21.1395C3.18535 20.9888 2.57202 20.7758 1.98369 20.5036C1.78184 20.407 1.58843 20.2933 1.40555 20.1636L1.36608 20.1336C0.511694 19.4817 0.0558873 18.4018 0.00458443 17.3679C-0.0467185 16.3041 0.328187 15.1242 1.3503 14.3583C1.62122 14.1621 1.90177 13.9799 2.19088 13.8124L2.37438 13.7044C2.5717 13.5904 2.74534 13.4884 2.91504 13.3784C3.34914 13.0985 3.57605 12.8665 3.68655 12.6005C4.08711 11.6487 4.37322 10.3928 4.37322 8.74103C4.37322 6.42332 5.28286 4.20159 6.8989 2.5618M10.7072 23.4692C10.5195 23.4042 10.317 23.398 10.1258 23.4515C9.9347 23.5049 9.76388 23.6155 9.63566 23.7687C9.50744 23.922 9.42776 24.1108 9.407 24.3107C9.38624 24.5105 9.42537 24.712 9.5193 24.889C9.85646 25.5269 10.3581 26.0601 10.9707 26.4319C11.5833 26.8037 12.284 27 12.998 27C13.7121 27 14.4127 26.8037 15.0254 26.4319C15.638 26.0601 16.1396 25.5269 16.4768 24.889C16.5704 24.7122 16.6093 24.511 16.5886 24.3114C16.5679 24.1119 16.4884 23.9233 16.3605 23.7702C16.2326 23.617 16.0622 23.5064 15.8714 23.4528C15.6807 23.3991 15.4784 23.4048 15.2909 23.4692C14.7897 23.6412 14.0517 23.7731 12.998 23.7731C11.9443 23.7731 11.2083 23.6412 10.7072 23.4692Z" fill="#5856AA"/>
</svg>
