<svg width="40" height="40" viewBox="0 0 40 40" fill="none" xmlns="http://www.w3.org/2000/svg">
<circle cx="20" cy="20" r="20" fill="#7C7ACE"/>
<path d="M20 15.0417C19.4364 15.0417 18.8959 15.2655 18.4974 15.6641C18.0989 16.0626 17.875 16.6031 17.875 17.1667V17.3183C17.875 17.5061 17.8004 17.6863 17.6675 17.8191C17.5347 17.952 17.3545 18.0266 17.1666 18.0266C16.9788 18.0266 16.7986 17.952 16.6658 17.8191C16.5329 17.6863 16.4583 17.5061 16.4583 17.3183V17.1667C16.4583 16.2274 16.8315 15.3265 17.4956 14.6623C18.1598 13.9981 19.0607 13.625 20 13.625H20.1643C20.8541 13.6252 21.5273 13.8366 22.0933 14.2308C22.6594 14.625 23.0912 15.1831 23.3306 15.83C23.57 16.4769 23.6057 17.1816 23.4327 17.8493C23.2597 18.5171 22.8864 19.1158 22.363 19.5651L21.2707 20.5015C21.0946 20.6529 20.9532 20.8404 20.8561 21.0514C20.7591 21.2624 20.7086 21.4918 20.7083 21.7241V22.4792C20.7083 22.667 20.6337 22.8472 20.5008 22.98C20.368 23.1129 20.1878 23.1875 20 23.1875C19.8121 23.1875 19.6319 23.1129 19.4991 22.98C19.3663 22.8472 19.2916 22.667 19.2916 22.4792V21.7241C19.2916 20.8401 19.6784 20.0014 20.3485 19.4262L21.4393 18.4913C21.7435 18.2306 21.9606 17.8831 22.0613 17.4953C22.162 17.1076 22.1416 16.6983 22.0027 16.3226C21.8638 15.9469 21.6132 15.6227 21.2845 15.3937C20.9558 15.1646 20.5649 15.0418 20.1643 15.0417H20ZM20 26.375C20.2818 26.375 20.552 26.2631 20.7513 26.0638C20.9505 25.8645 21.0625 25.5943 21.0625 25.3125C21.0625 25.0307 20.9505 24.7605 20.7513 24.5612C20.552 24.3619 20.2818 24.25 20 24.25C19.7182 24.25 19.4479 24.3619 19.2487 24.5612C19.0494 24.7605 18.9375 25.0307 18.9375 25.3125C18.9375 25.5943 19.0494 25.8645 19.2487 26.0638C19.4479 26.2631 19.7182 26.375 20 26.375Z" fill="white"/>
<path d="M7.95831 20C7.95831 16.8064 9.22699 13.7435 11.4852 11.4853C13.7435 9.22705 16.8063 7.95837 20 7.95837C23.1936 7.95837 26.2565 9.22705 28.5147 11.4853C30.773 13.7435 32.0416 16.8064 32.0416 20C32.0416 23.1937 30.773 26.2565 28.5147 28.5148C26.2565 30.773 23.1936 32.0417 20 32.0417C16.8063 32.0417 13.7435 30.773 11.4852 28.5148C9.22699 26.2565 7.95831 23.1937 7.95831 20ZM20 9.37504C17.1821 9.37504 14.4795 10.4945 12.487 12.487C10.4944 14.4796 9.37498 17.1821 9.37498 20C9.37498 22.818 10.4944 25.5205 12.487 27.5131C14.4795 29.5056 17.1821 30.625 20 30.625C22.8179 30.625 25.5204 29.5056 27.513 27.5131C29.5056 25.5205 30.625 22.818 30.625 20C30.625 17.1821 29.5056 14.4796 27.513 12.487C25.5204 10.4945 22.8179 9.37504 20 9.37504Z" fill="white"/>
</svg>
