<svg width="35" height="35" viewBox="0 0 35 35" fill="none" xmlns="http://www.w3.org/2000/svg">
<path fill-rule="evenodd" clip-rule="evenodd" d="M3.67496 11.4085C2.91663 12.7895 2.91663 14.4593 2.91663 17.796V20.0156C2.91663 25.7031 2.91663 28.5483 4.62579 30.3158C6.33496 32.0833 9.08392 32.0833 14.5833 32.0833H20.4166C25.916 32.0833 28.6664 32.0833 30.3741 30.3158C32.0818 28.5483 32.0833 25.7045 32.0833 20.0156V17.7975C32.0833 14.4593 32.0833 12.791 31.325 11.4085C30.5695 10.0245 29.1856 9.16704 26.4191 7.44913L23.5025 5.63933C20.5785 3.82371 19.1158 2.91663 17.5 2.91663C15.8841 2.91663 14.4229 3.82371 11.4975 5.63933L8.58079 7.44913C5.81433 9.16704 4.43183 10.0245 3.67496 11.4085ZM16.4062 26.25C16.4062 26.54 16.5214 26.8182 16.7266 27.0234C16.9317 27.2285 17.2099 27.3437 17.5 27.3437C17.79 27.3437 18.0682 27.2285 18.2734 27.0234C18.4785 26.8182 18.5937 26.54 18.5937 26.25V21.875C18.5937 21.5849 18.4785 21.3067 18.2734 21.1016C18.0682 20.8964 17.79 20.7812 17.5 20.7812C17.2099 20.7812 16.9317 20.8964 16.7266 21.1016C16.5214 21.3067 16.4062 21.5849 16.4062 21.875V26.25Z" fill="#5856AA"/>
</svg>
