<svg width="31" height="48" viewBox="0 0 31 48" fill="none" xmlns="http://www.w3.org/2000/svg">
<path d="M6.72 13.44C6.72 9.7335 9.7335 6.72 13.44 6.72H16.8C20.5065 6.72 23.52 9.7335 23.52 13.44V13.818C23.52 16.107 22.3545 18.2385 20.433 19.467L16.002 22.3125C13.356 24.0135 11.76 26.943 11.76 30.0825V30.24C11.76 32.0985 13.2615 33.6 15.12 33.6C16.9785 33.6 18.48 32.0985 18.48 30.24V30.093C18.48 29.232 18.921 28.434 19.635 27.972L24.066 25.1265C27.909 22.6485 30.24 18.396 30.24 13.818V13.44C30.24 6.0165 24.2235 0 16.8 0H13.44C6.0165 0 0 6.0165 0 13.44C0 15.2985 1.5015 16.8 3.36 16.8C5.2185 16.8 6.72 15.2985 6.72 13.44ZM15.12 47.04C18.3532 47.04 20.3739 43.54 18.7573 40.74C18.007 39.4405 16.6205 38.64 15.12 38.64C11.8868 38.64 9.86612 42.14 11.4827 44.94C12.233 46.2395 13.6195 47.04 15.12 47.04Z" fill="white"/>
</svg>
