<svg width="48" height="48" viewBox="0 0 48 48" fill="none" xmlns="http://www.w3.org/2000/svg">
<path d="M31.4996 23.9988C29.5721 23.9988 27.7084 23.1382 26.2497 21.5763C24.8312 20.0529 23.965 18.0214 23.8122 15.8577C23.6491 13.5496 24.3531 11.4271 25.794 9.88024C27.235 8.33339 29.2496 7.49902 31.4996 7.49902C33.7336 7.49902 35.7539 8.34839 37.1901 9.89149C38.6404 11.4496 39.3464 13.5683 39.1832 15.8567C39.0267 18.0233 38.1614 20.0539 36.7458 21.5754C35.2908 23.1382 33.428 23.9988 31.4996 23.9988Z" fill="white"/>
<path d="M43.8571 40.4988H19.1403C18.7429 40.501 18.3504 40.4119 17.9928 40.2385C17.6353 40.0651 17.3222 39.8119 17.0778 39.4985C16.8186 39.1588 16.6396 38.7649 16.5542 38.3462C16.4688 37.9275 16.4792 37.4949 16.5847 37.0808C17.3741 33.9111 19.3297 31.2824 22.2396 29.4796C24.8224 27.8803 28.1102 26.999 31.4983 26.999C34.9529 26.999 38.1544 27.8428 40.7522 29.4412C43.6687 31.2346 45.6271 33.8783 46.4127 37.0864C46.517 37.5008 46.5262 37.9334 46.4398 38.3519C46.3535 38.7703 46.1738 39.164 45.914 39.5032C45.6699 39.8151 45.3576 40.067 45.0011 40.2396C44.6445 40.4122 44.2532 40.5009 43.8571 40.4988Z" fill="white"/>
<path d="M13.7793 24.3739C10.4805 24.3739 7.58018 21.3067 7.31114 17.5373C7.17803 15.6062 7.77985 13.8204 8.99851 12.5108C10.204 11.2143 11.9045 10.5 13.7793 10.5C15.6542 10.5 17.3416 11.2181 18.5536 12.522C19.7817 13.8419 20.3816 15.624 20.241 17.5391C19.972 21.3076 17.0725 24.3739 13.7793 24.3739Z" fill="white"/>
<path d="M19.9356 27.3231C18.2865 26.5169 16.1462 26.1138 13.781 26.1138C11.0191 26.1138 8.33695 26.8338 6.2276 28.1406C3.83607 29.6247 2.22734 31.7856 1.57767 34.3946C1.48259 34.7699 1.4736 35.1617 1.55136 35.541C1.62912 35.9203 1.79163 36.277 2.02672 36.5846C2.2498 36.8709 2.53558 37.1023 2.86209 37.261C3.1886 37.4196 3.54714 37.5012 3.91013 37.4996H14.3163C14.4919 37.4996 14.6619 37.4379 14.7967 37.3253C14.9316 37.2127 15.0227 37.0564 15.0541 36.8836C15.0644 36.8246 15.0775 36.7655 15.0925 36.7074C15.8875 33.5143 17.7503 30.8162 20.5027 28.8494C20.604 28.7763 20.6854 28.6793 20.7396 28.5669C20.7938 28.4545 20.8192 28.3304 20.8133 28.2057C20.8074 28.081 20.7706 27.9598 20.706 27.853C20.6415 27.7462 20.5513 27.6572 20.4437 27.5941C20.2965 27.5078 20.1277 27.4169 19.9356 27.3231Z" fill="white"/>
</svg>
